<?xml version="1.0" encoding="UTF-8" standalone="no"?>
<!-- Created with Inkscape (http://www.inkscape.org/) -->

<svg
   width="92.604164mm"
   height="26.458336mm"
   viewBox="0 0 92.604164 26.458336"
   version="1.1"
   id="svg2524"
   inkscape:version="1.2.1 (9c6d41e, 2022-07-14)"
   sodipodi:docname="mpldc_splash.svg"
   inkscape:export-filename="mpldc_splash.png"
   inkscape:export-xdpi="95.999992"
   inkscape:export-ydpi="95.999992"
   xmlns:inkscape="http://www.inkscape.org/namespaces/inkscape"
   xmlns:sodipodi="http://sodipodi.sourceforge.net/DTD/sodipodi-0.dtd"
   xmlns="http://www.w3.org/2000/svg"
   xmlns:svg="http://www.w3.org/2000/svg">
  <sodipodi:namedview
     id="namedview2526"
     pagecolor="#ffffff"
     bordercolor="#666666"
     borderopacity="1.0"
     inkscape:showpageshadow="2"
     inkscape:pageopacity="0.0"
     inkscape:pagecheckerboard="0"
     inkscape:deskcolor="#d1d1d1"
     inkscape:document-units="mm"
     showgrid="false"
     inkscape:zoom="1.3006409"
     inkscape:cx="43.824548"
     inkscape:cy="49.590936"
     inkscape:window-width="1864"
     inkscape:window-height="1016"
     inkscape:window-x="0"
     inkscape:window-y="0"
     inkscape:window-maximized="1"
     inkscape:current-layer="layer1" />
  <defs
     id="defs2521">
    <inkscape:path-effect
       effect="bspline"
       id="path-effect2324"
       is_visible="true"
       lpeversion="1"
       weight="33.333333"
       steps="2"
       helper_size="0"
       apply_no_weight="true"
       apply_with_weight="true"
       only_selected="false" />
  </defs>
  <g
     inkscape:label="Layer 1"
     inkscape:groupmode="layer"
     id="layer1"
     transform="translate(-67.260546,-91.243319)">
    <rect
       style="fill:#ffffff;fill-opacity:1;stroke:none;stroke-width:2;stroke-linecap:round"
       id="rect1282"
       width="92.604164"
       height="26.458336"
       x="67.260544"
       y="91.243324" />
    <g
       id="g2784">
      <g
         id="g2455"
         transform="matrix(1.072685,0,0,1.072685,-71.168361,11.304746)"
         style="stroke-width:0.93224">
        <path
           d="m 142.48861,97.603159 c -5.9496,0 -10.78935,-4.840076 -10.78935,-10.78992 0,-5.948822 4.83975,-10.788933 10.78935,-10.788933 5.94889,0 10.78936,4.840111 10.78936,10.788933 0,5.949844 -4.84047,10.78992 -10.78936,10.78992 z m 0,-21.889051 c -6.12105,0 -11.10015,4.979283 -11.10015,11.099131 0,6.120695 4.9791,11.099836 11.10015,11.099836 6.12034,0 11.10016,-4.979141 11.10016,-11.099836 0,-6.119848 -4.97982,-11.099131 -11.10016,-11.099131"
           style="fill:#231f20;fill-opacity:1;fill-rule:nonzero;stroke:none;stroke-width:0.0328874"
           id="path144" />
        <path
           d="m 136.71192,91.622623 c -0.002,0.0014 -0.003,0.0029 -0.005,0.0043 -1.13701,-1.339603 -1.73673,-2.998753 -1.73673,-4.813653 0,-4.145669 3.37256,-7.518013 7.5184,-7.518013 1.09397,0 2.14489,0.228636 3.12879,0.679521 -0.12982,0.06022 -0.2787,0.148555 -0.43215,0.274355 -0.86537,-0.366536 -1.73673,-0.538515 -2.69664,-0.538515 -3.91654,0 -7.10353,3.186289 -7.10353,7.102652 0,1.698731 0.52987,3.191263 1.5681,4.443906 -0.06,0.09123 -0.14464,0.219393 -0.2413,0.365478 z m -0.0155,2.626678 c -2.28564,-1.820686 -3.65336,-4.569601 -3.65336,-7.436062 0,-5.207741 4.23686,-9.445202 9.44562,-9.445202 1.51942,0 3.04377,0.380611 4.3815,1.07763 0.0268,0.01404 0.0314,0.05073 0.008,0.07055 -0.39335,0.343394 -0.93874,1.016565 -1.07633,1.204666 -1.03999,-0.486974 -2.15335,-0.735859 -3.31364,-0.735859 -4.31659,0 -7.82884,3.511797 -7.82884,7.82821 0,1.926096 0.65264,3.683247 1.88383,5.093229 -0.0709,0.163866 -0.1965,0.522429 -0.1965,0.997162 0,0.392889 0.0727,0.844868 0.34925,1.345671 z m 8.46203,-13.64937 c 0.2914,-0.293613 0.70562,-0.493912 0.70562,-0.493912 0,0 1.05531,-1.264143 1.48499,-1.654986 3.5e-4,-2.47e-4 0.01,-0.01034 0.01,-0.01058 0.0279,-0.02826 0.0384,-0.05997 -0.0152,-0.09345 -0.0452,-0.0284 -0.0579,-0.035 -0.11289,-0.06516 -1.4411,-0.802182 -3.08328,-1.223998 -4.74169,-1.223998 -5.37951,0 -9.75536,4.376949 -9.75536,9.7554 0,3.11658 1.58115,6.122494 4.1656,7.989888 0.17215,0.124425 0.29139,0.171838 0.29139,0.171838 0.043,0.01489 0.0871,0.01461 0.1143,-0.02081 l 0.0381,-0.05002 c 0.0247,-0.03168 0.0342,-0.06202 0.0342,-0.08985 0,-0.07108 -0.10301,-0.135044 -0.22401,-0.314184 -0.34925,-0.518266 -0.50377,-1.107405 -0.50377,-1.601012 0,-0.539785 0.23217,-1.242223 0.6817,-1.683633 0,0 -0.77376,-0.942757 -1.08034,-1.664348 -0.30658,-0.72159 -0.51174,-1.636397 -0.55549,-2.737875 -0.0269,-3.76115 3.10058,-6.675532 6.50356,-6.814499 0.87277,0.003 1.7732,-5.11e-4 2.95929,0.601191 z"
           style="fill:#231f20;fill-opacity:1;fill-rule:nonzero;stroke:none;stroke-width:0.0328874"
           id="path146"
           sodipodi:nodetypes="ccssccssccccsscccsscsccccccccssscccscsczccc" />
        <path
           d="m 145.2685,79.24492 c 0.0173,0.0065 0.037,9.88e-4 0.0483,-0.01362 l 0.68792,-0.870514 c 0.018,-0.02247 0.009,-0.05581 -0.0173,-0.06671 -0.0385,-0.0157 -0.0773,-0.03129 -0.11641,-0.04642 -0.0176,-0.0069 -0.0377,-0.0014 -0.0497,0.01337 l -0.69109,0.874078 c -0.0183,0.02314 -0.008,0.05733 0.0194,0.0671 0.0399,0.01408 0.0794,0.02826 0.11889,0.04272"
           style="fill:#231f20;fill-opacity:1;fill-rule:nonzero;stroke:none;stroke-width:0.0328874"
           id="path156" />
        <path
           d="m 143.9918,78.890237 c 0.0395,0.0074 0.079,0.01542 0.11853,0.02367 0.0205,0.0043 0.0409,-0.0067 0.0487,-0.02604 l 0.40288,-0.996597 c 0.01,-0.02452 -0.005,-0.05235 -0.0307,-0.058 -0.0445,-0.01005 -0.0889,-0.01944 -0.13371,-0.02882 -0.0123,-0.0025 -0.0247,0.0039 -0.0293,0.01545 -0.0512,0.126506 -0.33161,0.821019 -0.40851,1.012154 -0.0102,0.02522 0.005,0.05306 0.0321,0.05817"
           style="fill:#231f20;fill-opacity:1;fill-rule:nonzero;stroke:none;stroke-width:0.0328874"
           id="path158" />
        <path
           d="m 142.57328,78.75089 c 0.0399,2.82e-4 0.0801,9.88e-4 0.11959,0.0021 0.0226,5.64e-4 0.0416,-0.01641 0.0437,-0.03888 l 0.0995,-1.05791 c 0.002,-0.0248 -0.0166,-0.04642 -0.0416,-0.04713 -0.0402,-0.0012 -0.0804,-0.0023 -0.12065,-0.0032 -0.0226,-3.88e-4 -0.042,0.01669 -0.0441,0.03916 l -0.0991,1.059003 c -0.002,0.02508 0.0176,0.04671 0.0427,0.04685"
           style="fill:#231f20;fill-opacity:1;fill-rule:nonzero;stroke:none;stroke-width:0.0328874"
           id="path160" />
        <path
           d="m 141.19462,78.854395 c 0.0395,-0.0063 0.0787,-0.01228 0.11818,-0.0182 0.0243,-0.0036 0.0409,-0.02646 0.036,-0.05055 l -0.20144,-1.042917 c -0.004,-0.02258 -0.0257,-0.03803 -0.0487,-0.03457 -0.0399,0.0061 -0.0797,0.01224 -0.11924,0.01887 -0.024,0.004 -0.0399,0.02702 -0.0353,0.05083 l 0.20144,1.042353 c 0.004,0.0229 0.0261,0.03789 0.049,0.03418"
           style="fill:#231f20;fill-opacity:1;fill-rule:nonzero;stroke:none;stroke-width:0.0328874"
           id="path162" />
        <path
           d="m 139.78669,79.176446 c 0.01,0.01944 0.0321,0.0285 0.0526,0.02134 0.0381,-0.01323 0.0762,-0.02618 0.1143,-0.03898 0.0247,-0.0083 0.0367,-0.03651 0.025,-0.05994 l -0.47766,-0.958144 c -0.01,-0.0193 -0.0325,-0.02868 -0.0529,-0.02152 -0.0381,0.01337 -0.0762,0.02702 -0.1143,0.04078 -0.0243,0.0088 -0.0353,0.03679 -0.024,0.05983 l 0.47696,0.956627"
           style="fill:#231f20;fill-opacity:1;fill-rule:nonzero;stroke:none;stroke-width:0.0328874"
           id="path164" />
        <path
           d="m 138.47153,79.784423 c 0.0134,0.01531 0.036,0.01901 0.0536,0.009 0.0353,-0.02011 0.0706,-0.03997 0.10654,-0.05937 0.024,-0.01323 0.03,-0.04523 0.0116,-0.06604 l -0.71402,-0.815657 c -0.0134,-0.01556 -0.0363,-0.01926 -0.0543,-0.0088 -0.0353,0.02067 -0.0702,0.04163 -0.10512,0.06272 -0.0229,0.0139 -0.0279,0.04519 -0.0102,0.0653 l 0.7119,0.812906"
           style="fill:#231f20;fill-opacity:1;fill-rule:nonzero;stroke:none;stroke-width:0.0328874"
           id="path166" />
        <path
           d="m 137.24916,80.647494 c 0.0162,0.01118 0.0374,0.01005 0.0522,-0.0023 0.0318,-0.02674 0.0639,-0.0532 0.096,-0.07937 0.0222,-0.0182 0.0208,-0.05239 -0.003,-0.06865 l -0.90241,-0.626851 c -0.0162,-0.01129 -0.0381,-0.01005 -0.0529,0.0029 -0.031,0.02727 -0.0624,0.05486 -0.0931,0.08269 -0.0205,0.01845 -0.0183,0.05154 0.004,0.06738 l 0.89888,0.62424"
           style="fill:#231f20;fill-opacity:1;fill-rule:nonzero;stroke:none;stroke-width:0.0328874"
           id="path168" />
        <path
           d="m 136.18412,81.745374 c 0.0173,0.0068 0.037,0.0014 0.0487,-0.01309 0.0265,-0.03267 0.0529,-0.06491 0.0801,-0.09701 0.0187,-0.02261 0.0102,-0.0569 -0.0173,-0.06766 l -1.03752,-0.404036 c -0.018,-0.0069 -0.0381,-0.0014 -0.0497,0.01379 -0.0258,0.03306 -0.0512,0.06639 -0.0762,0.09991 -0.0173,0.02272 -0.008,0.05567 0.0187,0.06601 l 1.03329,0.402096"
           style="fill:#231f20;fill-opacity:1;fill-rule:nonzero;stroke:none;stroke-width:0.0328874"
           id="path170" />
        <path
           d="m 134.22338,82.87966 1.11196,0.155293 c 0.018,0.0023 0.0353,-0.0065 0.0437,-0.02247 0.0201,-0.03761 0.0406,-0.07511 0.0614,-0.112289 0.0145,-0.02646 -0.002,-0.05927 -0.0317,-0.06339 l -1.1176,-0.155575 c -0.0183,-0.0025 -0.0363,0.0069 -0.0448,0.02342 -0.0187,0.03775 -0.0374,0.0755 -0.0557,0.113524 -0.0127,0.02632 0.004,0.05733 0.0328,0.06149"
           style="fill:#231f20;fill-opacity:1;fill-rule:nonzero;stroke:none;stroke-width:0.0328874"
           id="path172" />
        <path
           d="m 133.61519,84.565409 1.13383,-0.108585 c 0.0173,-0.0017 0.0317,-0.01351 0.037,-0.03006 0.0127,-0.04135 0.0258,-0.08255 0.0392,-0.123614 0.01,-0.02963 -0.0138,-0.05927 -0.0448,-0.05637 l -1.14053,0.108868 c -0.0176,0.0017 -0.0328,0.01422 -0.0374,0.03157 -0.0113,0.04135 -0.0226,0.08283 -0.0332,0.124425 -0.008,0.02896 0.0162,0.05666 0.0459,0.05376"
           style="fill:#231f20;fill-opacity:1;fill-rule:nonzero;stroke:none;stroke-width:0.0328874"
           id="path174" />
        <path
           d="m 134.47562,85.912985 c 0.005,-0.0441 0.0102,-0.08819 0.0155,-0.13215 0.004,-0.03171 -0.0261,-0.05666 -0.0565,-0.04618 l -1.10525,0.384351 c -0.0162,0.0056 -0.0275,0.02053 -0.0289,0.03775 -0.003,0.04343 -0.006,0.08696 -0.008,0.130351 -0.002,0.03062 0.0286,0.0532 0.0572,0.04315 l 1.09749,-0.381565 c 0.0155,-0.0055 0.0268,-0.0193 0.0286,-0.0357"
           style="fill:#231f20;fill-opacity:1;fill-rule:nonzero;stroke:none;stroke-width:0.0328874"
           id="path176" />
        <path
           d="m 134.44775,87.421675 c -0.003,-0.04551 -0.006,-0.09098 -0.009,-0.136702 -0.002,-0.03309 -0.0388,-0.05182 -0.0663,-0.03365 l -1.00119,0.657331 c -0.0138,0.0091 -0.0212,0.02537 -0.019,0.04177 0.006,0.0441 0.0116,0.08805 0.018,0.132009 0.005,0.03115 0.0402,0.04699 0.0667,0.02978 l 0.99166,-0.651545 c 0.0131,-0.0085 0.0205,-0.02343 0.0191,-0.03898"
           style="fill:#231f20;fill-opacity:1;fill-rule:nonzero;stroke:none;stroke-width:0.0328874"
           id="path178" />
        <path
           d="m 134.69857,88.929906 c -0.0123,-0.046 -0.0236,-0.09246 -0.0349,-0.138748 -0.008,-0.03362 -0.0504,-0.04452 -0.0737,-0.01887 l -0.81421,0.89655 c -0.0106,0.01171 -0.0141,0.02826 -0.009,0.04311 0.0148,0.043 0.0296,0.08615 0.0452,0.129011 0.0109,0.03059 0.0508,0.03831 0.0727,0.01432 l 0.80398,-0.885543 c 0.01,-0.01072 0.0134,-0.02575 0.01,-0.03983"
           style="fill:#231f20;fill-opacity:1;fill-rule:nonzero;stroke:none;stroke-width:0.0328874"
           id="path180" />
        <path
           d="m 135.1145,90.268415 -0.57397,1.092235 c -0.007,0.01323 -0.007,0.02893 7e-4,0.04187 0.0236,0.04068 0.0476,0.08132 0.0723,0.121709 0.0173,0.02864 0.0593,0.02713 0.0751,-0.0025 l 0.56798,-1.080523 c 0.006,-0.01224 0.006,-0.02685 3.5e-4,-0.03926 -0.0222,-0.04424 -0.0441,-0.08819 -0.0656,-0.132574 -0.0155,-0.03154 -0.0603,-0.0321 -0.0769,-9.53e-4"
           style="fill:#231f20;fill-opacity:1;fill-rule:nonzero;stroke:none;stroke-width:0.0328874"
           id="path182" />
        <path
           d="m 135.92201,91.496117 c -0.0215,-0.02963 -0.0677,-0.02029 -0.0766,0.01528 l -0.30727,1.268095 c -0.003,0.01362 0,0.02798 0.009,0.03856 0.0321,0.03708 0.0642,0.07387 0.0967,0.110667 0.0233,0.02603 0.066,0.01531 0.0741,-0.01845 l 0.30409,-1.253631 c 0.003,-0.01252 0,-0.02575 -0.008,-0.03595 -0.031,-0.0412 -0.0621,-0.08283 -0.0924,-0.124566"
           style="fill:#231f20;fill-opacity:1;fill-rule:nonzero;stroke:none;stroke-width:0.0328874"
           id="path184" />
        <rect
           style="fill:none;fill-opacity:0.877084;stroke:#333333;stroke-width:0.328874;stroke-linecap:round;stroke-dasharray:none"
           id="rect809"
           width="5.2790151"
           height="3.0401113"
           x="140.47786"
           y="91.219948" />
        <rect
           style="fill:none;fill-opacity:0.877084;stroke:#333333;stroke-width:0.328874;stroke-linecap:round;stroke-dasharray:none"
           id="rect809-3"
           width="5.2790151"
           height="3.0401113"
           x="143.64258"
           y="82.931122" />
        <rect
           style="fill:none;fill-opacity:0.877084;stroke:#333333;stroke-width:0.328874;stroke-linecap:round;stroke-dasharray:none"
           id="rect809-6"
           width="5.2790151"
           height="3.0401113"
           x="143.64258"
           y="85.97123" />
        <path
           style="fill:none;stroke:#000000;stroke-width:0.246655px;stroke-linecap:round;stroke-linejoin:miter;stroke-opacity:1"
           d="m 143.69728,90.106638 c 0,0 1.90805,0 1.90805,0"
           id="path2322"
           inkscape:path-effect="#path-effect2324"
           inkscape:original-d="m 143.69728,90.106638 h 1.90805" />
      </g>
      <text
         xml:space="preserve"
         style="font-size:13.2447px;line-height:0.65;font-family:sans-serif;-inkscape-font-specification:sans-serif;letter-spacing:0px;word-spacing:0px;stroke-width:0.264583"
         x="97.724045"
         y="103.31472"
         id="text2380"><tspan
           sodipodi:role="line"
           id="tspan2378"
           style="font-style:normal;font-variant:normal;font-weight:normal;font-stretch:normal;font-size:13.2447px;font-family:Gayathri;-inkscape-font-specification:Gayathri;stroke-width:0.264583"
           x="97.724045"
           y="103.31472">MPL</tspan><tspan
           sodipodi:role="line"
           style="font-style:normal;font-variant:normal;font-weight:normal;font-stretch:normal;font-size:13.2447px;font-family:Gayathri;-inkscape-font-specification:Gayathri;stroke-width:0.264583"
           x="97.724045"
           y="114.03983"
           id="tspan2432">Data-Cast</tspan></text>
    </g>
    <rect
       style="fill:none;fill-opacity:0.877084;stroke:#333333;stroke-width:0.264583;stroke-linecap:round;stroke-dasharray:none"
       id="rect2757"
       width="92.339584"
       height="26.193752"
       x="67.392838"
       y="91.37561" />
  </g>
</svg>
