<?xml version="1.0" encoding="UTF-8" standalone="no"?>
<!-- Created with Inkscape (http://www.inkscape.org/) -->

<svg
   width="23.81394mm"
   height="23.812498mm"
   viewBox="0 0 23.81394 23.812498"
   version="1.1"
   id="svg2524"
   inkscape:version="1.2.1 (9c6d41e, 2022-07-14)"
   sodipodi:docname="mpldc_icon.svg"
   inkscape:export-filename="mpldc_splash.png"
   inkscape:export-xdpi="95.999992"
   inkscape:export-ydpi="95.999992"
   xmlns:inkscape="http://www.inkscape.org/namespaces/inkscape"
   xmlns:sodipodi="http://sodipodi.sourceforge.net/DTD/sodipodi-0.dtd"
   xmlns="http://www.w3.org/2000/svg"
   xmlns:svg="http://www.w3.org/2000/svg">
  <sodipodi:namedview
     id="namedview2526"
     pagecolor="#ffffff"
     bordercolor="#666666"
     borderopacity="1.0"
     inkscape:showpageshadow="2"
     inkscape:pageopacity="0.0"
     inkscape:pagecheckerboard="0"
     inkscape:deskcolor="#d1d1d1"
     inkscape:document-units="mm"
     showgrid="false"
     inkscape:zoom="3.678768"
     inkscape:cx="48.113934"
     inkscape:cy="60.754035"
     inkscape:window-width="1864"
     inkscape:window-height="1016"
     inkscape:window-x="0"
     inkscape:window-y="0"
     inkscape:window-maximized="1"
     inkscape:current-layer="layer1" />
  <defs
     id="defs2521">
    <inkscape:path-effect
       effect="bspline"
       id="path-effect2324"
       is_visible="true"
       lpeversion="1"
       weight="33.333333"
       steps="2"
       helper_size="0"
       apply_no_weight="true"
       apply_with_weight="true"
       only_selected="false" />
  </defs>
  <g
     inkscape:label="Layer 1"
     inkscape:groupmode="layer"
     id="layer1"
     transform="translate(-69.770069,-92.522134)">
    <ellipse
       style="fill:#ffffff;fill-opacity:0.877084;stroke:none;stroke-width:2;stroke-linecap:round"
       id="path482"
       cx="81.677032"
       cy="104.42838"
       rx="11.906968"
       ry="11.906249" />
    <path
       d="m 81.677034,116.00219 c -6.382047,0 -11.573574,-5.19188 -11.573574,-11.57418 0,-6.381217 5.191527,-11.573131 11.573574,-11.573131 6.381285,0 11.573584,5.191914 11.573584,11.573131 0,6.3823 -5.192299,11.57418 -11.573584,11.57418 z m 0,-23.480056 c -6.565959,0 -11.906965,5.341202 -11.906965,11.905876 0,6.56557 5.341006,11.90662 11.906965,11.90662 6.565197,0 11.906975,-5.34105 11.906975,-11.90662 0,-6.564674 -5.341778,-11.905876 -11.906975,-11.905876"
       style="fill:#000080;fill-opacity:1;fill-rule:nonzero;stroke:none;stroke-width:0.0352778"
       id="path144" />
    <path
       d="m 75.480465,109.58696 c -0.0021,10e-4 -0.0032,0.003 -0.0054,0.005 -1.219653,-1.43697 -1.862964,-3.21672 -1.862964,-5.16353 0,-4.446998 3.617695,-8.064461 8.064875,-8.064461 1.173485,0 2.300791,0.245254 3.356206,0.728912 -0.139256,0.0646 -0.298957,0.159352 -0.463561,0.294296 C 83.641352,96.994 82.706657,96.80952 81.676976,96.80952 c -4.201214,0 -7.61985,3.41788 -7.61985,7.61891 0,1.8222 0.568384,3.42322 1.682077,4.76691 -0.06436,0.0979 -0.155153,0.23534 -0.258838,0.39204 z m -0.01663,2.8176 c -2.451771,-1.95303 -3.918904,-4.90175 -3.918904,-7.97655 0,-5.58627 4.544816,-10.131731 10.132175,-10.131731 1.629859,0 3.265006,0.408275 4.699969,1.155957 0.02875,0.01506 0.03368,0.05442 0.0086,0.07568 -0.421941,0.368354 -1.006973,1.090454 -1.154564,1.292227 -1.115581,-0.522369 -2.309866,-0.789345 -3.554491,-0.789345 -4.630342,0 -8.39788,3.767052 -8.39788,8.397202 0,2.06609 0.700077,3.95096 2.020756,5.46343 -0.07605,0.17578 -0.210782,0.5604 -0.210782,1.06964 0,0.42145 0.07798,0.90628 0.374635,1.44348 z m 9.077093,-14.641477 c 0.31258,-0.314954 0.756908,-0.529812 0.756908,-0.529812 0,0 1.132015,-1.356027 1.592926,-1.775279 3.76e-4,-2.65e-4 0.01073,-0.01109 0.01073,-0.01135 0.02993,-0.03031 0.04119,-0.06433 -0.01631,-0.100242 -0.04848,-0.03046 -0.06211,-0.03754 -0.121095,-0.0699 -1.545846,-0.860489 -3.307388,-1.312965 -5.08634,-1.312965 -5.770519,0 -10.464428,4.695088 -10.464428,10.464475 0,3.34311 1.696076,6.56751 4.468377,8.57063 0.184662,0.13347 0.312569,0.18433 0.312569,0.18433 0.04613,0.016 0.09343,0.0157 0.122608,-0.0223 l 0.04087,-0.0537 c 0.0265,-0.034 0.03669,-0.0665 0.03669,-0.0964 0,-0.0762 -0.110497,-0.14486 -0.240292,-0.33702 -0.374635,-0.55593 -0.540386,-1.18789 -0.540386,-1.71738 0,-0.57902 0.249045,-1.33251 0.731249,-1.80602 0,0 -0.830001,-1.01127 -1.158865,-1.78531 -0.328863,-0.77404 -0.548935,-1.75535 -0.595865,-2.93687 -0.02886,-4.03454 3.325945,-7.160753 6.976271,-7.309821 0.936207,0.0032 1.902085,-5.48e-4 3.174386,0.644889 z"
       style="fill:#000080;fill-opacity:1;fill-rule:nonzero;stroke:none;stroke-width:0.0352778"
       id="path146"
       sodipodi:nodetypes="ccssccssccccsscccsscsccccccccssscccscsczccc" />
    <path
       d="m 84.65898,96.309583 c 0.01856,0.007 0.03969,0.0011 0.05181,-0.01461 l 0.737921,-0.933787 c 0.01931,-0.0241 0.0097,-0.05987 -0.01856,-0.07156 -0.0413,-0.01684 -0.08292,-0.03356 -0.124872,-0.04979 -0.01888,-0.0074 -0.04044,-0.0015 -0.05331,0.01434 l -0.741322,0.93761 c -0.01963,0.02482 -0.0086,0.0615 0.02081,0.07198 0.0428,0.0151 0.08517,0.03031 0.127532,0.04582"
       style="fill:#000080;fill-opacity:1;fill-rule:nonzero;stroke:none;stroke-width:0.0352778"
       id="path156" />
    <path
       d="m 83.289483,95.92912 c 0.04237,0.0079 0.08474,0.01654 0.127145,0.02539 0.02199,0.0046 0.04387,-0.0072 0.05224,-0.02793 l 0.432163,-1.069035 c 0.01073,-0.0263 -0.0054,-0.05616 -0.03293,-0.06222 -0.04773,-0.01078 -0.09536,-0.02085 -0.143429,-0.03092 -0.01319,-0.0027 -0.02649,0.0042 -0.03143,0.01657 -0.05492,0.135702 -0.355713,0.880695 -0.438203,1.085723 -0.01094,0.02705 0.0054,0.05692 0.03443,0.0624"
       style="fill:#000080;fill-opacity:1;fill-rule:nonzero;stroke:none;stroke-width:0.0352778"
       id="path158" />
    <path
       d="m 81.767858,95.779644 c 0.0428,3.03e-4 0.08592,0.0011 0.128282,0.0023 0.02424,6.05e-4 0.04462,-0.0176 0.04688,-0.04171 l 0.106732,-1.134804 c 0.0021,-0.0266 -0.01781,-0.04979 -0.04462,-0.05056 -0.04312,-0.0013 -0.08624,-0.0025 -0.129419,-0.0034 -0.02424,-4.17e-4 -0.04505,0.0179 -0.04731,0.04201 L 81.7221,95.729457 c -0.0021,0.0269 0.01888,0.05011 0.0458,0.05025"
       style="fill:#000080;fill-opacity:1;fill-rule:nonzero;stroke:none;stroke-width:0.0352778"
       id="path160" />
    <path
       d="m 80.28899,95.890673 c 0.04237,-0.0068 0.08442,-0.01317 0.12677,-0.01952 0.02607,-0.0039 0.04387,-0.02838 0.03862,-0.05422 l -0.216082,-1.118722 c -0.0043,-0.02422 -0.02757,-0.04079 -0.05224,-0.03708 -0.0428,0.0065 -0.08549,0.01313 -0.127907,0.02024 -0.02574,0.0043 -0.0428,0.02898 -0.03787,0.05452 l 0.216082,1.118116 c 0.0043,0.02456 0.028,0.04064 0.05256,0.03666"
       style="fill:#000080;fill-opacity:1;fill-rule:nonzero;stroke:none;stroke-width:0.0352778"
       id="path162" />
    <path
       d="m 78.778725,96.236132 c 0.01073,0.02085 0.03443,0.03057 0.05642,0.02289 0.04087,-0.01419 0.08174,-0.02808 0.122608,-0.04181 0.02649,-0.0089 0.03937,-0.03916 0.02682,-0.0643 l -0.512379,-1.027787 c -0.01073,-0.0207 -0.03486,-0.03076 -0.05675,-0.02308 -0.04087,0.01434 -0.08174,0.02898 -0.122608,0.04374 -0.02607,0.0094 -0.03787,0.03946 -0.02574,0.06418 l 0.511628,1.026159"
       style="fill:#000080;fill-opacity:1;fill-rule:nonzero;stroke:none;stroke-width:0.0352778"
       id="path164" />
    <path
       d="m 77.367972,96.8883 c 0.01437,0.01642 0.03862,0.02039 0.0575,0.0097 0.03787,-0.02157 0.07573,-0.04287 0.114284,-0.06368 0.02574,-0.01419 0.03218,-0.04852 0.01244,-0.07084 l -0.765918,-0.874944 c -0.01437,-0.01669 -0.03894,-0.02066 -0.05825,-0.0094 -0.03787,0.02217 -0.0753,0.04466 -0.112761,0.06728 -0.02456,0.01491 -0.02993,0.04847 -0.01094,0.07005 l 0.763644,0.871992"
       style="fill:#000080;fill-opacity:1;fill-rule:nonzero;stroke:none;stroke-width:0.0352778"
       id="path166" />
    <path
       d="m 76.056754,97.814103 c 0.01738,0.01199 0.04012,0.01078 0.05599,-0.0025 0.03411,-0.02868 0.06855,-0.05707 0.102978,-0.08514 0.02381,-0.01952 0.02231,-0.0562 -0.0032,-0.07364 L 75.24452,96.980409 c -0.01738,-0.01211 -0.04087,-0.01078 -0.05675,0.0031 -0.03325,0.02925 -0.06694,0.05885 -0.09987,0.0887 -0.02199,0.01979 -0.01963,0.05529 0.0043,0.07228 l 0.964215,0.669613"
       style="fill:#000080;fill-opacity:1;fill-rule:nonzero;stroke:none;stroke-width:0.0352778"
       id="path168" />
    <path
       d="m 74.914302,98.991783 c 0.01856,0.0073 0.03969,0.0015 0.05224,-0.01404 0.02843,-0.03504 0.05674,-0.06963 0.08592,-0.104061 0.02006,-0.02425 0.01094,-0.06104 -0.01856,-0.07258 L 73.92097,98.367699 c -0.01931,-0.0074 -0.04087,-0.0015 -0.05331,0.01479 -0.02768,0.03546 -0.05492,0.07122 -0.08174,0.107172 -0.01856,0.02437 -0.0086,0.05972 0.02006,0.07081 l 1.108395,0.431322"
       style="fill:#000080;fill-opacity:1;fill-rule:nonzero;stroke:none;stroke-width:0.0352778"
       id="path170" />
    <path
       d="m 72.811045,100.20851 1.192783,0.16658 c 0.01931,0.002 0.03787,-0.007 0.04688,-0.0241 0.02156,-0.0403 0.04355,-0.0806 0.06586,-0.12045 0.01555,-0.0284 -0.0021,-0.0636 -0.034,-0.068 l -1.198832,-0.16688 c -0.01963,-0.0027 -0.03894,0.0074 -0.04806,0.02512 -0.02006,0.0405 -0.04012,0.081 -0.05975,0.12178 -0.01362,0.0282 0.0043,0.0615 0.03518,0.066"
       style="fill:#000080;fill-opacity:1;fill-rule:nonzero;stroke:none;stroke-width:0.0352778"
       id="path172" />
    <path
       d="m 72.158649,102.01679 1.216243,-0.11648 c 0.01856,-0.002 0.034,-0.0145 0.03969,-0.0322 0.01362,-0.0444 0.02768,-0.0885 0.04205,-0.1326 0.01073,-0.0318 -0.0148,-0.0636 -0.04806,-0.0605 l -1.22343,0.11678 c -0.01888,0.002 -0.03518,0.0153 -0.04012,0.0339 -0.01212,0.0444 -0.02424,0.0889 -0.03561,0.13347 -0.0086,0.0311 0.01738,0.0608 0.04924,0.0577"
       style="fill:#000080;fill-opacity:1;fill-rule:nonzero;stroke:none;stroke-width:0.0352778"
       id="path174" />
    <path
       d="m 73.081619,103.46232 c 0.0054,-0.0473 0.01094,-0.0946 0.01663,-0.14176 0.0043,-0.034 -0.028,-0.0608 -0.06061,-0.0495 l -1.185585,0.41229 c -0.01738,0.006 -0.0295,0.022 -0.031,0.0405 -0.0032,0.0466 -0.0064,0.0933 -0.0086,0.13982 -0.0021,0.0328 0.03068,0.0571 0.06136,0.0463 l 1.177261,-0.4093 c 0.01663,-0.006 0.02875,-0.0207 0.03068,-0.0383"
       style="fill:#000080;fill-opacity:1;fill-rule:nonzero;stroke:none;stroke-width:0.0352778"
       id="path176" />
    <path
       d="m 73.051724,105.08067 c -0.0032,-0.0488 -0.0064,-0.0976 -0.0097,-0.14664 -0.0021,-0.0355 -0.04162,-0.0556 -0.07112,-0.0361 l -1.073962,0.70511 c -0.0148,0.01 -0.02274,0.0272 -0.02038,0.0448 0.0064,0.0473 0.01244,0.0944 0.01931,0.1416 0.0054,0.0334 0.04312,0.0504 0.07155,0.0319 l 1.063739,-0.69891 c 0.01405,-0.009 0.02199,-0.0251 0.02049,-0.0418"
       style="fill:#000080;fill-opacity:1;fill-rule:nonzero;stroke:none;stroke-width:0.0352778"
       id="path178" />
    <path
       d="m 73.320775,106.69852 c -0.01319,-0.0493 -0.02532,-0.0992 -0.03744,-0.14883 -0.0086,-0.0361 -0.05406,-0.0478 -0.07906,-0.0202 l -0.873391,0.96171 c -0.01137,0.0126 -0.01512,0.0303 -0.0097,0.0463 0.01588,0.0461 0.03175,0.0924 0.04848,0.13839 0.01169,0.0328 0.05449,0.0411 0.07798,0.0154 l 0.862417,-0.94991 c 0.01073,-0.0115 0.01437,-0.0276 0.01073,-0.0427"
       style="fill:#000080;fill-opacity:1;fill-rule:nonzero;stroke:none;stroke-width:0.0352778"
       id="path180" />
    <path
       d="m 73.766936,108.13432 -0.615689,1.17162 c -0.0075,0.0142 -0.0075,0.031 7.51e-4,0.0449 0.02532,0.0436 0.05106,0.0872 0.07755,0.13055 0.01856,0.0307 0.06361,0.0291 0.08056,-0.003 l 0.609264,-1.15906 c 0.0064,-0.0131 0.0064,-0.0288 3.75e-4,-0.0421 -0.02381,-0.0475 -0.04731,-0.0946 -0.07037,-0.14221 -0.01663,-0.0338 -0.06468,-0.0344 -0.08249,-10e-4"
       style="fill:#000080;fill-opacity:1;fill-rule:nonzero;stroke:none;stroke-width:0.0352778"
       id="path182" />
    <path
       d="m 74.63314,109.45126 c -0.02306,-0.0318 -0.07262,-0.0218 -0.08217,0.0164 l -0.329604,1.36027 c -0.0032,0.0146 0,0.03 0.0097,0.0414 0.03443,0.0398 0.06887,0.0792 0.103729,0.11871 0.02499,0.0279 0.0708,0.0164 0.07949,-0.0198 l 0.326193,-1.34475 c 0.0032,-0.0134 0,-0.0276 -0.0086,-0.0386 -0.03325,-0.0442 -0.06661,-0.0888 -0.09912,-0.13362"
       style="fill:#000080;fill-opacity:1;fill-rule:nonzero;stroke:none;stroke-width:0.0352778"
       id="path184" />
    <rect
       style="fill:none;fill-opacity:0.877084;stroke:#000080;stroke-width:0.352778;stroke-linecap:round;stroke-dasharray:none"
       id="rect809"
       width="5.6627202"
       height="3.2610817"
       x="79.520134"
       y="109.15501" />
    <rect
       style="fill:none;fill-opacity:0.877084;stroke:#000080;stroke-width:0.352778;stroke-linecap:round;stroke-dasharray:none"
       id="rect809-3"
       width="5.6627202"
       height="3.2610817"
       x="82.914879"
       y="100.26372" />
    <rect
       style="fill:none;fill-opacity:0.877084;stroke:#000080;stroke-width:0.352778;stroke-linecap:round;stroke-dasharray:none"
       id="rect809-6"
       width="5.6627202"
       height="3.2610817"
       x="82.914879"
       y="103.5248" />
    <path
       style="fill:#000080;stroke:#000000;stroke-width:0.264583px;stroke-linecap:round;stroke-linejoin:miter;stroke-opacity:1"
       d="m 82.973556,107.96078 c 0,0 2.046736,0 2.046736,0"
       id="path2322"
       inkscape:path-effect="#path-effect2324"
       inkscape:original-d="m 82.973556,107.96078 h 2.046736" />
  </g>
</svg>
